# xmcd
#
# Track frame offsets: 
#        150
#        14305
#        46967
#        76008
#        88707
#        107751
#        138279
#        153541
#        168608
#        190657
#        221091
#        256730
#        267817
#        284946
#
# Disc length: 4034 seconds
#
# Revision: 0
# Processed by: cddbd v1.5.2PL0 Copyright (c) Steve Scherf et al.
# Submitted via: ExactAudioCopyFreeDBPlugin 1.0
#
DISCID=c00fc00e
DTITLE=Tony Spinner - Live Bootleg 2011 Tour
DYEAR=2011
DGENRE=Blues
TTITLE0=Fun de bird
TTITLE1=Politics man
TTITLE2=Knucklehead
TTITLE3=Mr. Mouse
TTITLE4=Tommy 2 guns
TTITLE5=How long
TTITLE6=Hater woman
TTITLE7=No worries
TTITLE8=Nina Tina old
TTITLE9=You hate da man
TTITLE10=Livin´ celing
TTITLE11=Hate hit adult
TTITLE12=The rain smiles Carry
TTITLE13=Skippinn´ in
EXTD=
EXTT0=
EXTT1=
EXTT2=
EXTT3=
EXTT4=
EXTT5=
EXTT6=
EXTT7=
EXTT8=
EXTT9=
EXTT10=
EXTT11=
EXTT12=
EXTT13=
PLAYORDER=
